<?xml version="1.0" encoding="utf-8"?>
<!-- Generator: Adobe Illustrator 16.0.0, SVG Export Plug-In . SVG Version: 6.00 Build 0)  -->
<!DOCTYPE svg PUBLIC "-//W3C//DTD SVG 1.1//EN" "http://www.w3.org/Graphics/SVG/1.1/DTD/svg11.dtd">
<svg version="1.1" id="Layer_1" xmlns="http://www.w3.org/2000/svg" xmlns:xlink="http://www.w3.org/1999/xlink" x="0px" y="0px"
	 width="55.875px" height="61px" viewBox="0 0 55.875 61" enable-background="new 0 0 55.875 61" xml:space="preserve">
<path fill-rule="evenodd" clip-rule="evenodd" d="M27.261,0c0.455,0,0.909,0,1.364,0c0.042,0.021,0.083,0.057,0.128,0.063
	c1.844,0.215,3.348,1.092,4.72,2.304c1.932,1.706,3.914,3.354,5.879,5.021c2.225,1.888,4.457,3.766,6.682,5.652
	c2.274,1.928,4.526,3.884,6.82,5.789c1.742,1.446,2.86,3.207,3.003,5.504c0.168,2.721-0.853,4.945-3.033,6.539
	c-2.871,2.102-6.699,1.841-9.39-0.484c-2.183-1.887-4.392-3.742-6.59-5.609c-0.447-0.38-0.899-0.754-1.44-1.207
	c0,0.288,0,0.445,0,0.604c0,3.377-0.001,6.754,0,10.13c0,6.25,0.003,12.5,0.001,18.75c-0.001,3.899-2.076,6.726-5.649,7.708
	C29.446,60.847,29.132,60.92,28.82,61c-0.585,0-1.169,0-1.754,0c-0.138-0.039-0.275-0.087-0.416-0.115
	c-1.935-0.393-3.515-1.338-4.702-2.938c-1.082-1.458-1.474-3.109-1.474-4.888c0.001-9.644,0.001-19.287,0-28.93
	c0-0.148-0.019-0.297-0.029-0.461c-0.1,0.031-0.136,0.031-0.158,0.051c-1.914,1.625-3.825,3.256-5.741,4.879
	c-0.953,0.806-1.86,1.682-2.885,2.383c-3.322,2.275-7.622,1.572-10.135-1.588c-2.226-2.799-1.993-7.185,0.554-9.662
	c0.939-0.914,1.955-1.752,2.954-2.602c2.79-2.373,5.592-4.732,8.384-7.102c2.817-2.393,5.615-4.808,8.451-7.177
	c0.902-0.753,1.845-1.49,2.868-2.054C25.494,0.38,26.414,0.255,27.261,0z"/>
</svg>
