<?xml version="1.0" encoding="utf-8"?>
<!-- Generator: Adobe Illustrator 16.0.0, SVG Export Plug-In . SVG Version: 6.00 Build 0)  -->
<!DOCTYPE svg PUBLIC "-//W3C//DTD SVG 1.1//EN" "http://www.w3.org/Graphics/SVG/1.1/DTD/svg11.dtd">
<svg version="1.1" id="Layer_1" xmlns="http://www.w3.org/2000/svg" xmlns:xlink="http://www.w3.org/1999/xlink" x="0px" y="0px"
	 width="65.016px" height="70.434px" viewBox="0 0 65.016 70.434" enable-background="new 0 0 65.016 70.434" xml:space="preserve">
<path fill="#00A79D" d="M-27.078,401.058c-11.644,4.18-21.943,11.198-30.061,20.222c11.79,13.106,18.979,30.43,18.979,49.405
	s-7.189,36.299-18.979,49.405c-8.117,9.024-18.417,16.042-30.061,20.222c-7.79,2.797-16.177,4.331-24.918,4.331
	c-40.781,0-73.958-33.178-73.958-73.958c0-40.781,33.177-73.958,73.958-73.958c8.741,0,17.128,1.534,24.918,4.331
	c8.382-10.219,18.565-18.905,30.061-25.57c-16.183-9.382-34.964-14.761-54.979-14.761c-60.631,0-109.958,49.327-109.958,109.958
	s49.327,109.958,109.958,109.958c20.015,0,38.796-5.378,54.979-14.761c11.496-6.665,21.679-15.352,30.061-25.57
	c15.564-18.975,24.918-43.228,24.918-69.627S-11.513,420.032-27.078,401.058z"/>
<path fill="#1C75BC" d="M-2.159,360.727c-20.015,0-38.796,5.378-54.979,14.761c-11.496,6.665-21.679,15.351-30.061,25.57
	c-15.564,18.975-24.918,43.228-24.918,69.627s9.354,50.652,24.918,69.627c11.645-4.18,21.944-11.197,30.061-20.222
	c-11.79-13.106-18.979-30.43-18.979-49.405s7.189-36.299,18.979-49.405c8.117-9.024,18.417-16.042,30.061-20.222
	c7.791-2.796,16.177-4.331,24.918-4.331c40.781,0,73.958,33.177,73.958,73.958c0,40.78-33.177,73.958-73.958,73.958
	c-8.741,0-17.128-1.534-24.918-4.331c-8.382,10.219-18.565,18.905-30.061,25.57c16.183,9.383,34.964,14.761,54.979,14.761
	c60.631,0,109.958-49.327,109.958-109.958S58.472,360.727-2.159,360.727z"/>
<path fill="#00A79D" d="M175.645,471.519c0,14.01-9.161,25.368-9.161,25.368s-9.161-11.357-9.161-25.368s9.161-25.368,9.161-25.368
	S175.645,457.508,175.645,471.519z"/>
<line fill="#00A79D" x1="-57.138" y1="421.28" x2="-36.599" y2="488.969"/>
<g>
	<g>
		<path fill-rule="evenodd" clip-rule="evenodd" fill="#FFFFFF" d="M21.895,230.212c-16.058,0-31.866,0-47.709,0
			c0-17.282,0-34.565,0-51.92c15.891,0,31.817,0,47.709,0C21.895,195.552,21.895,212.884,21.895,230.212z"/>
	</g>
</g>
<image overflow="visible" width="32" height="36" xlink:href="B522E411.jpg"  transform="matrix(7.8612 0 0 7.8612 -436.8491 9.2173)">
</image>
<path fill="#F1F2F2" d="M1.075,30.203c-2.52,4.244-0.458,7.716,4.582,7.716h12.075v26.599c0,3.268,2.649,5.917,5.912,5.917h17.731
	c3.263,0,5.912-2.649,5.912-5.917V37.919h12.072c5.04,0,7.103-3.471,4.582-7.716L37.091,2.685c-3.65-3.648-5.653-3.511-9.165,0
	C27.925,2.685,1.075,30.203,1.075,30.203L1.075,30.203z"/>
</svg>
