<?xml version="1.0" encoding="utf-8"?>
<!-- Generator: Adobe Illustrator 16.0.0, SVG Export Plug-In . SVG Version: 6.00 Build 0)  -->
<!DOCTYPE svg PUBLIC "-//W3C//DTD SVG 1.1//EN" "http://www.w3.org/Graphics/SVG/1.1/DTD/svg11.dtd">
<svg version="1.1" id="Layer_1" xmlns="http://www.w3.org/2000/svg" xmlns:xlink="http://www.w3.org/1999/xlink" x="0px" y="0px"
	 width="512px" height="512px" viewBox="0 0 512 512" enable-background="new 0 0 512 512" xml:space="preserve">
<g>
	<path fill-rule="evenodd" clip-rule="evenodd" d="M173.439,213.553c18.829-2.045,36.198-8.316,52.027-18.758
		c0.574-0.377,1.462-0.58,1.434-1.71c-1.038,0-2.054-0.114-3.037,0.018c-10.087,1.355-20.2,1.992-30.387,1.613
		c-12.969-0.481-25.699-2.12-37.734-7.308c-11.515-4.962-21.506-11.9-28.594-22.497c-0.445-0.666-1.419-1.354-0.934-2.203
		c0.455-0.798,1.564-0.425,2.369-0.448c6.683-0.195,13.293-0.977,19.772-2.613c22.4-5.658,40.96-17.097,53.437-36.931
		c11.235-17.861,13.093-36.991,4.378-56.293c-7.392-16.368-21.478-24.609-38.557-28.332c-2.546-0.554-5.225-0.4-7.662-1.482
		c-5.984,0-11.968,0-17.951,0c-2.517,1.104-5.276,1.051-7.901,1.658c-17.854,4.135-31.689,14.385-43.119,28.269
		c-14.816,17.999-21.377,38.803-20.832,61.981c0.013,0.512,0.041,1.024,0.082,1.535c0.321,3.916,0.322,3.907-3.521,4.027
		c-21.114,0.661-41.403-3.666-61.333-10.155c-1.613-0.525-3.169-1.313-4.943-1.164c7.419,6.886,15.789,12.457,24.502,17.52
		c15.017,8.726,30.842,15.434,47.998,18.644c2.298,0.431,3.903,0.901,5.006,3.397c9.354,21.186,25.258,35.801,46.251,45.006
		C139.945,214.239,156.562,215.385,173.439,213.553z M115.22,132.801c-1.384,0.198-1.769-0.341-2.044-1.543
		c-1.109-4.847-1.722-9.749-1.855-14.716c0.176-27.381,20.733-40.114,38.146-42.292c13.081-1.636,22.252,8.563,19.277,21.411
		c-2.691,11.621-10.229,19.683-20.043,25.818C138.452,127.887,127.088,131.103,115.22,132.801z M232.18,192.122
		c0.1-0.317,0.103-0.543,0.197-0.595c15.025-8.033,25.845-20.504,35.807-33.89c8.055-10.823,15.711-21.941,24.796-31.985
		c16.276-17.992,36.423-28.394,60.407-31.595c16.213-2.163,32.368-1.365,48.514,0.684c0.144,0.018,0.271,0.157,0.592,0.353
		c-2.675,4.446-5.671,8.661-8.724,12.835c-18.05,24.702-39.536,45.708-66.135,61.146c-23.272,13.506-48.276,21.439-75.214,23.086
		C245.681,192.574,238.962,192.64,232.18,192.122z M426.178,153.719c-10.513-1.789-20.943-4.054-31.44-5.943
		c-10.413-1.874-20.863-2.292-31.511,0.106c0.414-1.348,1.482-1.788,2.273-2.411c19.625-15.47,41.983-24.671,66.514-28.805
		c26.234-4.421,52.229-2.509,78.063,3.166c0.562,0.123,1.103,0.344,1.924,0.604c-2.428,3.13-5.171,5.672-7.844,8.262
		c-11.314,10.97-23.992,19.736-39.387,24.024C451.995,156.28,439.077,155.915,426.178,153.719z M303.407,261.132
		c-1.932-6.841-5.703-12.164-12.531-14.911c-10.644-4.28-22.706-1.521-30.356,6.939c-0.067,0.074-0.289,0.01-0.57,0.01
		c0-1.604-0.102-3.22,0.027-4.819c0.141-1.76-0.592-2.457-2.29-2.593c-2.648-0.213-5.279-0.223-7.926,0.025
		c-1.558,0.146-2.217,0.787-2.215,2.436c0.034,30.503,0.041,61.005-0.008,91.507c-0.005,1.855,0.846,2.456,2.428,2.482
		c2.475,0.041,4.949,0.027,7.425,0.025c1.892-0.002,2.631-0.814,2.604-2.839c-0.109-8.542-0.046-17.086-0.047-25.631
		c0-1.159,0-2.32,0-4.023c9.737,8.744,20.234,8.874,30.885,4.266c10.515-4.55,13.722-13.866,13.886-24.541
		c0.103-6.66-0.006-13.327-0.055-19.991C304.643,266.64,304.175,263.852,303.407,261.132z M291.398,294.192
		c-1.345,8.366-6.369,13.198-13.959,13.339c-9.131,0.17-15.5-4.542-16.87-13.073c-1.33-8.287-1.03-16.724-0.345-25.024
		c0.651-7.882,9.864-17.422,20.145-15.521c7.06,1.304,11.174,6.2,11.396,14.448c0.104,3.837,0.018,7.682,0.018,12.374
		C291.555,284.648,292.164,289.432,291.398,294.192z M119.806,269.955c-0.001-2.569-0.229-5.119-0.747-7.638
		c-1.883-9.133-7.371-14.814-16.452-16.893c-8.839-2.022-17.524-0.912-25.966,1.981c-7.206,2.472-7.34,1.299-3.647,9.475
		c0.83,1.837,2.022,2.169,3.916,1.265c4.638-2.215,9.465-3.893,14.642-4.396c7.746-0.751,13.558,2.856,15.115,9.954
		c1.656,7.545,1.188,6.081-4.8,6.191c-7.771,0.144-15.557,0.057-23.075,2.472c-6.764,2.173-12.753,5.688-13.789,13.26
		c-1.212,8.849-2.236,18.039,5.354,25.196c1.764,1.663,3.748,3.006,5.996,3.858c10.153,3.847,19.598,2.816,28.092-4.288
		c0.948-0.793,1.85-1.639,3.184-2.826c0,2.189,0.105,3.867-0.029,5.522c-0.146,1.779,0.64,2.551,2.303,2.59
		c2.304,0.054,4.606,0.077,6.91,0.09c2.187,0.01,3.073-0.88,3.053-3.274C119.748,298.316,119.808,284.134,119.806,269.955z
		 M102.231,301.922c-3.932,2.647-7.905,5.047-12.741,5.633c-7.446,0.903-13.006-3.98-13.023-11.516c-0.003-1.197-0.002-2.395,0-3.59
		c0.003-6.029,2.227-9.202,7.986-10.982c7.142-2.207,14.53-1.825,21.873-1.853c1.32-0.005,1.191,0.927,1.191,1.78
		c0.003,2.479,0.001,4.958,0.001,7.436c0.001,0.855-0.151,1.744,0.026,2.561C108.625,296.366,106.033,299.362,102.231,301.922z
		 M511.191,267.042c-0.33-13.135-7.875-20.752-20.885-22.276c-7.625-0.896-14.979,0.304-22.197,2.639
		c-6.917,2.235-7.225,3.187-3.526,9.565c0.932,1.602,1.911,2.102,3.738,1.244c4.573-2.141,9.295-3.846,14.382-4.414
		c9.271-1.033,15.543,4.186,16.313,13.474c0.178,2.151-0.646,2.637-2.48,2.647c-4.184,0.021-8.376-0.017-12.552,0.205
		c-6.423,0.342-12.755,1.226-18.565,4.282c-6.239,3.281-9.458,8.407-9.433,15.504c0.004,1.967,0,3.931,0,5.897
		c0,10.676,6.088,18.142,16.546,20.344c10.228,2.155,18.887-0.699,26.645-8.746c0,2.479,0.05,4.245-0.016,6.007
		c-0.052,1.383,0.559,2.068,1.892,2.21c2.813,0.298,5.623,0.303,8.436-0.007c1.325-0.145,1.891-0.781,1.886-2.185
		C511.313,297.969,511.579,282.498,511.191,267.042z M495.167,300.888c-4.415,3.17-8.839,6.143-14.437,6.695
		c-7.277,0.722-12.614-4.085-12.632-11.39c-0.003-1.195,0-2.392,0-3.587c0-6.495,2.424-9.678,8.769-11.399
		c5.413-1.47,10.966-1.591,16.523-1.598c5.663-0.006,5.663-0.001,5.663,5.733c0,1.11,0,2.221,0,3.33c0,1.282-0.169,2.592,0.03,3.841
		C499.68,296.24,498.156,298.742,495.167,300.888z M367.057,266.398c-0.36-12.528-8.108-20.159-20.454-21.605
		c-7.715-0.902-15.156,0.222-22.467,2.577c-6.974,2.245-7.249,3.086-3.668,9.508c0.982,1.764,2.043,2.187,3.927,1.287
		c4.486-2.142,9.143-3.771,14.14-4.349c9.326-1.08,15.583,4.059,16.38,13.381c0.175,2.051-0.453,2.727-2.406,2.727
		c-4.187,0-8.379-0.019-12.557,0.2c-6.6,0.347-13.102,1.271-19.03,4.504c-5.061,2.762-8.274,6.935-8.827,12.721
		c-0.438,4.585-0.584,9.228,0.307,13.794c0.615,3.157,2.033,5.965,4.205,8.371c8.486,9.41,25.003,9.835,35.361,0.896
		c0.891-0.769,1.743-1.578,3.124-2.835c0,2.39,0.034,4.171-0.012,5.951c-0.032,1.261,0.539,1.921,1.755,2.065
		c2.896,0.345,5.794,0.35,8.692,0.018c1.211-0.139,1.746-0.745,1.742-2.035C367.209,297.846,367.507,282.112,367.057,266.398z
		 M350.33,301.492c-4.259,2.938-8.547,5.659-13.872,6.124c-7.156,0.622-12.437-4.183-12.45-11.348c-0.004-1.538-0.007-3.075,0-4.612
		c0.018-4.866,2.005-7.803,6.526-9.672c3.526-1.458,7.267-1.92,11.013-2.146c3.833-0.233,7.687-0.118,11.527-0.252
		c1.406-0.048,1.987,0.337,1.916,1.845c-0.113,2.388-0.03,4.782-0.03,7.175c0.001,1.111-0.169,2.253,0.03,3.328
		C355.813,296.314,353.768,299.121,350.33,301.492z M57.605,266.655c-0.711-10.638-6.365-17.651-16.308-20.583
		c-6.752-1.991-13.642-2.283-20.501-0.594c-10.156,2.501-20.21,9.734-20.604,24.122c-0.207,7.592-0.347,15.201,0.116,22.791
		c0.631,10.334,6.112,17.556,15.341,21.517c11.844,5.083,23.729,3.775,35.191-1.649c5.304-2.513,5.451-3.437,2.73-8.558
		c-1.509-2.841-2.112-3.064-4.961-1.477c-6.31,3.517-12.947,5.6-20.279,5.333c-8.37-0.306-15.027-6.921-15.138-15.307
		c-0.022-1.622,0.093-3.253-0.032-4.866c-0.122-1.568,0.413-2.04,1.996-2.02c6.747,0.082,13.495,0.035,20.242,0.035
		c6.748-0.002,13.496-0.004,20.243,0.001c1.117,0,2.204,0.215,2.166-1.588C57.691,278.095,57.988,272.353,57.605,266.655z
		 M37.683,276.21c-2.901,0-5.802,0-8.703,0c-4.693,0-9.387-0.052-14.079,0.03c-1.526,0.026-2.161-0.386-2.053-2.001
		c0.164-2.462-0.088-4.972,0.262-7.399c1.188-8.232,8.04-13.511,16.815-13.153c7.992,0.326,14.476,6.432,15.177,14.296
		C45.836,276.21,45.836,276.21,37.683,276.21z M242.18,248.523c-5.771,15.064-11.447,30.164-17.16,45.25
		c-5.745,15.166-11.541,30.313-17.195,45.514c-0.783,2.104-1.892,3.083-4.08,3.015c-2.132-0.065-4.267-0.054-6.4-0.064
		c-1.94-0.01-2.279-0.846-1.635-2.616c2.746-7.54,5.344-15.132,8.117-22.658c0.605-1.646,0.521-3.006-0.081-4.623
		c-7.846-21.123-15.622-42.271-23.413-63.416c-1.058-2.87-1.047-2.861,2.061-3.175c2.473-0.249,4.936-0.154,7.413-0.041
		c2.004,0.095,2.981,0.945,3.645,2.852c5.525,15.881,11.152,31.726,16.753,47.58c0.305,0.861,0.652,1.709,1.196,3.124
		c2.114-5.996,4.037-11.42,5.94-16.851c3.952-11.274,7.937-22.539,11.797-33.846c0.659-1.933,1.725-2.7,3.68-2.845
		c2.567-0.19,5.11-0.103,7.67,0.05C242.502,245.892,242.926,246.578,242.18,248.523z M177.62,295.633
		c-0.911,11.017-7.01,18.064-17.639,20.396c-2.6,0.57-5.232,0.782-7.887,0.836c-7.769-0.09-14.967-2.195-21.743-5.962
		c-1.988-1.105-2.301-2.311-1.376-4.36c2.964-6.56,2.955-6.621,9.227-3.111c5.256,2.941,10.743,4.738,16.886,3.987
		c5.485-0.67,8.963-3.691,9.894-8.822c0.873-4.814-1.386-9.093-6.418-11.292c-5.55-2.423-11.271-4.452-16.862-6.777
		c-6.04-2.513-10.295-6.729-11.505-13.363c-2.007-11,4.443-20.066,15.769-22.135c8.939-1.631,17.47,0.293,25.825,3.389
		c1.212,0.447,1.505,1.288,1.341,2.408c-0.099,0.673-0.267,1.341-0.457,1.995c-1.722,5.91-2.248,6.167-7.733,3.829
		c-5.01-2.136-10.12-3.579-15.672-2.688c-4.362,0.701-7.154,3.037-7.7,6.702c-0.565,3.794,1.4,6.826,5.751,8.599
		c5.294,2.158,10.621,4.236,15.948,6.311C173.157,279.427,178.36,286.679,177.62,295.633z M449.803,295.972
		c-0.324,9.304-5.879,16.413-15.177,19.401c-3.451,1.109-7.01,1.477-10.617,1.482c-7.68-0.135-14.792-2.254-21.48-5.987
		c-1.862-1.04-2.228-2.212-1.378-4.17c2.864-6.597,3.001-6.711,9.14-3.335c5.185,2.851,10.556,4.729,16.616,4.099
		c5.899-0.612,9.394-3.613,10.38-9.203c0.828-4.699-1.768-9.044-6.985-11.232c-5.43-2.276-10.979-4.265-16.411-6.531
		c-10.1-4.216-14.195-13.751-10.425-23.957c2.275-6.161,6.89-9.64,13.066-11.122c9.526-2.288,18.633-0.272,27.574,3.029
		c1.175,0.434,1.53,1.28,1.28,2.436c-0.162,0.75-0.345,1.498-0.57,2.232c-1.752,5.723-2.115,5.897-7.433,3.615
		c-5.089-2.185-10.283-3.667-15.921-2.76c-4.507,0.725-7.182,3.104-7.665,7.007c-0.44,3.563,1.506,6.54,5.592,8.212
		c5.529,2.262,11.107,4.402,16.661,6.604C445.727,279.627,450.143,286.115,449.803,295.972z M393.83,312.991
		c0.004,1.902-0.715,2.68-2.495,2.688c-2.475,0.013-4.951,0.014-7.426,0.017c-1.956,0.004-2.579-0.951-2.564-2.901
		c0.082-10.768,0.039-21.535,0.039-32.301c0-10.511,0.066-21.022-0.051-31.53c-0.026-2.364,0.791-3.166,3.056-3.258
		c2.395-0.096,4.77-0.108,7.16,0.059c1.75,0.121,2.276,0.923,2.273,2.627C393.778,269.923,393.771,291.457,393.83,312.991z
		 M393.992,227.191c0.001,0.768,0.001,1.536,0.001,2.304c0,3.897-0.296,4.219-4.277,4.61c-0.509,0.051-1.021,0.074-1.533,0.085
		c-6.418,0.124-6.998-0.432-6.998-6.693c0-0.342,0-0.683,0-1.024c0-5.266,0.292-5.563,5.544-5.67
		c0.256-0.006,0.513,0.001,0.768-0.001C393.992,220.783,393.992,220.783,393.992,227.191z"/>
	<g>
		<path fill-rule="evenodd" clip-rule="evenodd" d="M225.765,423.087c-0.139-0.676-0.48-0.829-1.115-0.813
			c-1.654,0.039-3.31,0.019-4.966,0.011c-1.555-0.007-2.665,0.693-3.262,2.117c-3.447,8.225-6.87,16.458-10.327,24.678
			c-0.293,0.696-0.26,0.958,0.567,0.917c0.983-0.047,1.968-0.006,2.952-0.013c1.118-0.006,2.42,0.331,3.304-0.129
			c0.967-0.504,0.989-1.99,1.359-3.065c0.246-0.714,0.608-0.953,1.356-0.927c1.608,0.057,3.22,0.005,4.832,0.019
			c1.113,0.012,2.459-0.317,3.278,0.188c0.856,0.529,0.625,2.034,0.884,3.105c0.14,0.586,0.291,0.833,0.921,0.822
			c1.875-0.035,3.751-0.013,5.791-0.013C229.456,440.917,227.601,432.003,225.765,423.087z M222.021,440.271
			c-1.521-0.028-3.043-0.025-4.564-0.001c-0.541,0.009-0.747-0.136-0.546-0.688c1.16-3.175,2.312-6.354,3.466-9.529
			c0.093-0.004,0.187-0.007,0.277-0.01c0.649,3.145,1.281,6.294,1.96,9.432C222.742,440.067,222.66,440.283,222.021,440.271z
			 M175.748,423.303c-3.556,8.522-7.146,17.028-10.672,25.562c-0.377,0.914-0.843,1.18-1.773,1.143
			c-1.743-0.071-3.493-0.077-5.234,0.003c-0.855,0.039-1.142-0.304-1.332-1.054c-1.783-7.006-3.614-13.999-5.379-21.009
			c-0.347-1.377-1.064-2.288-2.354-2.863c-1.845-0.822-3.774-1.365-5.709-1.91c-0.254-0.071-0.716,0.06-0.676-0.439
			c0.042-0.516,0.458-0.449,0.813-0.449c3.849,0,7.699-0.03,11.548,0.018c1.648,0.021,2.779,1.028,3.126,2.781
			c1.036,5.256,2.014,10.523,3.014,15.785c0.081,0.013,0.162,0.025,0.244,0.04c1.393-3.507,2.791-7.011,4.179-10.519
			c0.937-2.365,1.878-4.727,2.77-7.108c0.271-0.72,0.606-1.051,1.443-1.021c2.055,0.07,4.114,0.023,6.146,0.023
			C176.199,422.715,175.869,423.013,175.748,423.303z M202.942,447.567c-2.449,1.977-5.316,2.685-8.351,2.868
			c-2.748,0.167-5.438-0.265-8.072-1.055c-0.633-0.191-0.987-0.464-0.799-1.232c0.406-1.645,0.734-3.31,1.131-5.134
			c2.764,1.295,5.506,2.009,8.439,1.581c0.565-0.083,1.146-0.236,1.659-0.481c1.924-0.92,2.14-2.687,0.519-4.052
			c-0.724-0.609-1.568-1.027-2.407-1.449c-1.119-0.563-2.225-1.146-3.239-1.891c-4.19-3.078-4.48-8.219-0.633-11.754
			c2.471-2.271,5.525-3.02,8.763-3.188c2.209-0.116,4.359,0.28,6.474,0.922c0.613,0.186,0.906,0.375,0.706,1.11
			c-0.372,1.377-0.679,2.777-0.912,4.186c-0.118,0.711-0.326,0.753-0.942,0.512c-2.066-0.81-4.205-1.192-6.436-0.885
			c-0.632,0.088-1.224,0.265-1.766,0.592c-1.418,0.857-1.575,2.217-0.318,3.286c0.605,0.516,1.328,0.898,2.018,1.307
			c1.23,0.726,2.512,1.373,3.712,2.146C207.844,438.4,206.243,444.903,202.942,447.567z M186.235,423.47
			c-1.499,6.837-2.963,13.682-4.436,20.525c-0.375,1.744-0.772,3.483-1.103,5.234c-0.099,0.523-0.232,0.775-0.817,0.768
			c-2.097-0.028-4.192-0.011-6.413-0.011c0.798-3.782,1.565-7.444,2.342-11.102c1.084-5.103,2.193-10.2,3.249-15.308
			c0.2-0.971,0.537-1.418,1.642-1.325c1.509,0.129,3.041,0.098,4.556,0.01C186.285,422.202,186.438,422.545,186.235,423.47z"/>
		<path fill-rule="evenodd" clip-rule="evenodd" d="M62.087,464.212c-12.652,0-25.226,0-37.813,0c0-22.539,0-45.02,0-67.541
			c12.607,0,25.183,0,37.824,0c0,4.231,0,8.408,0,12.612c1.063,0,2.059,0,3.116,0c0-0.239,0-0.442,0-0.646
			c0-5.329,0.001-10.657-0.001-15.985c-0.001-3.854-2.946-6.79-6.815-6.791c-3.296-0.002-6.59,0-9.886-0.002
			c-6.864,0-13.729-0.005-20.592,0.007c-0.546,0-1.104,0.049-1.635,0.17c-3.055,0.693-5.136,3.374-5.16,6.636
			c-0.018,2.179-0.004,4.357-0.004,6.536c0,7.678,0,15.356,0,23.034c0,6.369,0,12.737,0,19.106c0,8.813-0.004,17.628,0.011,26.442
			c0.001,0.617,0.074,1.259,0.246,1.85c0.904,3.097,3.381,4.936,6.623,4.938c10.104,0.005,20.207,0.006,30.312,0
			c4.029-0.003,6.9-2.9,6.9-6.935c0.001-5.366,0-10.733,0.001-16.099c0-0.223,0-0.444,0-0.695c-1.057,0-2.053,0-3.127,0
			C62.087,455.31,62.087,459.75,62.087,464.212z M43.201,472.509c-1.876,0.013-3.47-1.577-3.44-3.428
			c0.032-1.839,1.621-3.381,3.462-3.357c1.812,0.023,3.352,1.592,3.345,3.403C46.561,470.958,45.027,472.497,43.201,472.509z
			 M102.283,414.407c0-1.857-0.979-2.837-2.843-2.837c-9.063-0.002-18.125-0.002-27.187-0.002c-1.25,0-2.501,0-3.752,0
			c-7.85,0.002-15.699,0-23.549,0.004c-1.755,0-2.711,0.953-2.709,2.705c0,1.761,0.013,3.521,0.012,5.285
			c-0.003,8.89-0.007,17.779-0.008,26.669c0,0.169,0.028,0.34,0.07,0.503c0.305,1.185,1.257,1.846,2.657,1.848
			c11.446,0.005,22.893,0.011,34.341,0.013c6.711,0,13.424-0.008,20.137-0.015c1.834-0.001,2.829-1.003,2.831-2.85
			c0.003-2.595,0.003-5.189,0.003-7.784C102.285,430.099,102.284,422.252,102.283,414.407z M44.23,413.943
			c0.006-0.135,0.303-0.314,0.494-0.369c0.228-0.067,0.488-0.026,0.734-0.026c8.059,0,16.114,0.003,24.172-0.004
			c1.723-0.001,3.442-0.049,5.164-0.045c8.227,0.011,16.453,0.031,24.68,0.052c0.684,0.001,0.803,0.124,0.804,0.792
			c0.003,0.85,0.002,1.697,0.002,2.597c-18.729,0-37.361,0-56.073,0C44.207,415.929,44.188,414.935,44.23,413.943z M100.304,425.142
			c-0.008,6.82-0.016,13.644-0.022,20.467c-0.001,0.943-0.05,0.994-0.998,0.994c-6.521,0-13.041-0.004-19.563-0.004
			c-11.506,0.002-23.011,0.004-34.518,0.004c-0.933,0-1.019-0.082-1.019-0.989c-0.002-7.353-0.002-14.706-0.002-22.059
			c0-0.17,0-0.34,0-0.601c18.728,0,37.382,0,56.122,0C100.304,423.712,100.304,424.426,100.304,425.142z M45.881,469.084
			c0.015,1.484-1.187,2.711-2.681,2.738c-1.478,0.026-2.72-1.182-2.749-2.672c-0.028-1.452,1.217-2.724,2.685-2.736
			C44.623,466.402,45.867,467.612,45.881,469.084z M45.125,431.733c0-0.92,0-1.821,0-2.724c0-1.213,0-1.213,1.229-1.213
			c9.189,0,18.38,0,27.569,0c0.375,0,0.751,0,1.183,0c0,1.367,0,2.632,0,3.937C65.127,431.733,55.17,431.733,45.125,431.733z
			 M97.663,440.116c-0.008,2.741-2.253,4.965-5.011,4.964c-2.735,0-4.999-2.266-4.989-4.996c0.009-2.76,2.231-4.978,4.99-4.98
			C95.448,435.098,97.671,437.324,97.663,440.116z M88.287,444.258c-1.637,1.385-4.649,0.986-6.36-0.84
			c-1.687-1.802-1.65-4.926,0.076-6.729c1.687-1.762,4.712-2.143,6.277-0.789C85.962,438.585,86.248,442.001,88.287,444.258z
			 M45.157,441.525c9.979,0,19.933,0,29.948,0c0,0.48,0,0.912,0,1.39c-9.979,0-19.947,0-29.948,0
			C45.157,442.45,45.157,442.005,45.157,441.525z M45.217,439.415c-0.044-0.059-0.064-0.072-0.065-0.09
			c-0.152-1.351-0.152-1.351,1.178-1.352c9.414,0,18.827,0,28.24,0.001c0.166,0,0.332,0.018,0.525,0.027c0,0.479,0,0.925,0,1.413
			C65.126,439.415,55.174,439.415,45.217,439.415z M77.29,431.738c-0.016,0-0.03-0.021-0.083-0.056c0-1.251,0-2.525,0-3.844
			c3.301,0,6.58,0,9.936,0c0,1.235,0.008,2.405-0.015,3.578c-0.002,0.118-0.197,0.335-0.305,0.335
			C83.646,431.761,80.468,431.749,77.29,431.738z"/>
		<path d="M275.947,448.476c-7.065-11.116-5.223-25.82,4.367-34.83c9.573-8.995,24.162-9.958,34.733-2.294
			c0.247,0.18,0.472,0.39,0.707,0.585c-0.085,0.498-0.467,0.779-0.806,1.084c-5.183,4.647-8.299,10.354-9.142,17.322
			c-0.954,7.899,1.228,14.809,6.13,20.99c1.176,1.484,2.713,2.598,3.833,4.111C303.705,465.472,284.627,462.134,275.947,448.476z
			 M343.896,408.528c-9.761-4.134-19.094-3.011-27.64,3.464c0.758,1.433,2.196,2.224,3.248,3.393
			c8.881,9.861,9.356,25.065,0.914,35.598c-1.277,1.593-2.924,2.803-4.131,4.437c6.153,4.913,13.206,6.642,20.887,5.454
			c12.182-1.886,21.449-11.574,22.996-23.727C361.705,425.091,355.192,413.314,343.896,408.528z M287.795,470.027
			c-0.093-1.456-1.142-2.386-2.614-2.522c-1.109-0.104-1.934,0.853-2.776,0.933c-0.73,0.071-1.614-1.092-2.714-0.918
			c-0.892,0.139-1.7,0.738-2.702,0.212c-0.486-0.255-0.817,0.169-0.804,0.76c0.022,0.971,0.007,1.942,0.007,2.914
			c0.002,0.92,0.021,1.842-0.007,2.761c-0.019,0.606,0.117,0.946,0.829,0.967c0.787,0.023,0.942-0.337,0.917-1.02
			c-0.038-1.072-0.021-2.146,0.003-3.222c0.023-1.085,0.578-1.756,1.684-1.775c1.111-0.021,1.495,0.761,1.538,1.721
			c0.047,1.125,0.046,2.25,0.016,3.374c-0.019,0.64,0.177,0.914,0.862,0.924c0.707,0.009,0.863-0.298,0.846-0.924
			c-0.031-1.124-0.041-2.251,0.011-3.374c0.051-1.071,0.643-1.733,1.749-1.717c1.101,0.016,1.476,0.786,1.501,1.755
			c0.03,1.124,0.036,2.249,0,3.374c-0.022,0.678,0.254,0.887,0.902,0.882c0.598-0.004,0.813-0.225,0.801-0.811
			C287.814,472.889,287.885,471.453,287.795,470.027z M356.174,474.12c0.013,0.856-0.432,1.272-1.07,0.95
			c-0.813-0.415-1.396-0.11-2.117,0.096c-1.478,0.417-3.017-0.267-3.848-1.57c-0.917-1.438-0.814-3.427,0.242-4.739
			c0.981-1.216,2.526-1.657,4.001-1.126c0.279,0.101,0.542,0.25,1.045,0.488c0-0.94,0.026-1.708-0.008-2.471
			c-0.032-0.671,0.118-1.049,0.913-1.031c0.724,0.018,0.832,0.373,0.829,0.967C356.148,468.496,356.127,471.309,356.174,474.12z
			 M354.553,471.32c-0.039-1.295-1.012-2.269-2.227-2.226c-1.211,0.044-2.118,1.074-2.084,2.367
			c0.035,1.315,0.966,2.232,2.228,2.198C353.715,473.625,354.591,472.642,354.553,471.32z M296.758,470.066
			c0.008,0.459,0.001,0.919,0.001,1.377c0,0.917-0.042,1.839,0.013,2.752c0.048,0.771-0.362,1.174-0.966,0.883
			c-0.838-0.405-1.485-0.107-2.253,0.096c-1.529,0.403-3.122-0.375-3.896-1.757c-0.794-1.418-0.625-3.387,0.393-4.602
			c1.038-1.236,2.645-1.632,4.146-1.005c0.233,0.096,0.586,0.396,0.646,0.342c0.583-0.532,1.372-0.805,1.793-0.175
			C296.967,468.48,296.743,469.356,296.758,470.066z M295.165,471.34c-0.025-1.316-0.955-2.271-2.186-2.241
			c-1.214,0.029-2.12,1.043-2.098,2.344c0.021,1.318,0.934,2.237,2.2,2.213C294.34,473.634,295.19,472.687,295.165,471.34z
			 M341.482,474.195c0.047,0.783-0.396,1.161-0.993,0.883c-0.853-0.397-1.521-0.092-2.303,0.104c-1.511,0.375-3.001-0.345-3.8-1.684
			c-0.887-1.49-0.732-3.442,0.378-4.734c1.013-1.18,2.571-1.567,4.041-0.987c0.234,0.093,0.44,0.358,0.665,0.362
			c1.998,0.029,1.998,0.017,2,2.063c0,0.462,0,0.923,0,1.383C341.471,472.455,341.432,473.327,341.482,474.195z M339.872,471.43
			c0.019-1.277-0.922-2.31-2.124-2.335c-1.229-0.024-2.144,0.93-2.163,2.258c-0.021,1.362,0.818,2.291,2.088,2.31
			C338.912,473.683,339.854,472.727,339.872,471.43z M302.75,470.739c-0.547-0.124-1.107-0.178-1.655-0.293
			c-0.347-0.076-0.758-0.172-0.765-0.616c-0.006-0.499,0.396-0.681,0.818-0.751c0.726-0.123,1.447-0.021,2.092,0.304
			c0.715,0.357,0.889-0.129,1.123-0.586c0.357-0.695-0.252-0.788-0.638-0.927c-1.127-0.398-2.284-0.542-3.456-0.173
			c-1.081,0.339-1.765,1.038-1.762,2.217c0.002,1.156,0.773,1.729,1.773,2.02c0.632,0.183,1.297,0.262,1.947,0.383
			c0.37,0.07,0.752,0.216,0.761,0.619c0.013,0.493-0.427,0.644-0.838,0.725c-0.82,0.162-1.662,0.143-2.39-0.265
			c-0.681-0.382-1.016-0.167-1.298,0.44c-0.37,0.794,0.354,0.818,0.746,1.021c0.647,0.334,1.366,0.398,2.407,0.4
			c0.139-0.015,0.611-0.002,1.05-0.117c1.169-0.309,2.085-0.928,2.1-2.279C304.781,471.543,303.883,470.998,302.75,470.739z
			 M310.616,473.518c-1.158,0.407-1.757-0.09-1.683-1.351c0.034-0.561,0.069-1.134-0.007-1.688c-0.147-1.06,0.326-1.312,1.287-1.236
			c0.524,0.043,1.284,0.329,1.313-0.737c0.028-1.054-0.694-0.858-1.246-0.792c-1.051,0.127-1.528-0.205-1.344-1.308
			c0.105-0.626-0.124-0.938-0.825-0.924c-0.626,0.015-0.965,0.164-0.912,0.867c0.05,0.712,0.16,1.499-1.01,1.368
			c-0.4-0.044-0.451,0.33-0.452,0.651c0,0.304-0.04,0.813,0.247,0.812c1.938-0.021,0.969,1.45,1.225,2.164
			c0,3.34,1.337,4.627,3.777,3.749c0.42-0.149,0.934-0.272,0.696-0.94C311.5,473.64,311.361,473.256,310.616,473.518z
			 M331.51,473.416c-0.964,0.496-2.043,0.411-2.765-0.56c-0.674-0.909-0.688-1.948-0.036-2.867c0.737-1.038,1.826-1.128,2.878-0.597
			c0.744,0.376,1.012,0.05,1.276-0.511c0.355-0.756-0.311-0.871-0.729-1.065c-1.409-0.653-3.351-0.317-4.451,0.724
			c-1.143,1.079-1.506,2.867-0.898,4.399c0.578,1.454,1.913,2.306,4.003,2.326c0.202-0.041,0.773-0.09,1.284-0.289
			c0.414-0.16,1.131-0.247,0.817-1.005C332.638,473.367,332.352,472.98,331.51,473.416z M325.138,467.519
			c-1.061,0.003-2.026,0.767-3.195,0.229c-0.509-0.235-0.507,0.451-0.51,0.846c-0.007,0.915-0.002,1.832,0,2.747
			c0.001,0.968,0.029,1.937-0.008,2.902c-0.027,0.664,0.229,0.879,0.884,0.892c0.733,0.014,0.831-0.354,0.815-0.945
			c-0.024-0.968,0.007-1.935-0.009-2.902c-0.022-1.364,0.34-2.344,1.999-2.112c0.893,0.126,0.83-0.661,0.902-1.113
			C326.108,467.494,325.51,467.517,325.138,467.519z M347.29,467.523c-1.133-0.072-2.189,0.746-3.401,0.218
			c-0.399-0.175-0.494,0.359-0.489,0.739c0.006,0.97,0.001,1.942,0.001,2.912c0.002,0.92,0.021,1.842-0.004,2.761
			c-0.017,0.589,0.08,0.967,0.813,0.979c0.761,0.015,0.981-0.296,0.945-1.005c-0.044-0.868,0.005-1.739-0.015-2.607
			c-0.031-1.427,0.148-2.61,2.075-2.352c0.732,0.099,0.696-0.632,0.789-1.079C348.107,467.579,347.631,467.543,347.29,467.523z
			 M359.277,474.03c-0.422,0.025-0.693,0.368-0.688,0.669c0.012,0.399,0.315,0.727,0.813,0.688c0.416-0.029,0.693-0.326,0.679-0.663
			C360.064,474.316,359.769,474,359.277,474.03z M319.938,471.237c-0.016,0.723-0.364,0.843-0.96,0.835
			c-1.43-0.021-2.86-0.007-4.436-0.007c0.715,1.605,1.646,2.014,3.238,1.415c0.621-0.233,1.143-0.537,1.477,0.293
			c0.384,0.95-0.503,0.979-0.974,1.174c-2.245,0.934-4.625-0.027-5.337-2.101c-0.778-2.264,0.319-4.617,2.426-5.2
			C317.746,466.988,319.988,468.774,319.938,471.237z M317.968,470.244c0.038-0.773-0.792-1.233-1.671-1.209
			c-0.87,0.024-1.685,0.502-1.623,1.277c0.02,0.244,0.1,0.371,0.219,0.435h0.04h0.781h0.303h0.488h0.741h0.511
			C317.875,470.68,317.954,470.536,317.968,470.244z"/>
		<path fill-rule="evenodd" clip-rule="evenodd" d="M422.35,385.86c0.602,0,1.206,0,1.809,0c0.658,0,1.316,0,1.977,0
			c0.603,0,1.205,0,1.808,0c0.659,0,1.318,0,1.978,0c0.603,0,1.205,0,1.808,0c0.659,0,1.318,0,1.978,0c0.603,0,1.205,0,1.809,0
			c0.658,0,1.318,0,1.976,0c0.603,0,1.205,0,1.808,0c0.66,0,1.319,0,1.979,0c0.603,0,1.204,0,1.808,0c0.658,0,1.317,0,1.977,0
			c0.603,0,1.205,0,1.808,0c0.659,0,1.318,0,1.978,0c0.603,0,1.205,0,1.808,0c0.658,0,1.317,0,1.978,0c0.603,0,1.205,0,1.809,0
			c0.658,0,1.317,0,1.976,0c0.603,0,1.206,0,1.808,0c0.66,0,1.319,0,1.978,0c0.604,0,1.205,0,1.809,0c0.659,0,1.318,0,1.977,0
			c0.603,0,1.205,0,1.808,0c0.66,0,1.318,0,1.978,0c0.602,0,1.206,0,1.809,0c0.657,0,1.317,0,1.977,0c0.604,0,1.205,0,1.808,0
			c0.659,0,1.319,0,1.977,0c0.603,0,1.206,0,1.808,0c0.66,0,1.319,0,1.978,0c0.604,0,1.206,0,1.809,0
			c2.349,0.062,3.829,1.325,3.957,4.052c-0.074,0.599-0.074,1.199,0,1.801c-0.038,0.652-0.076,1.303-0.115,1.957
			c-0.287,1.088-0.929,1.912-1.871,2.516c-0.822,0.295-1.67,0.398-2.543,0.386c-1.071-0.016-2.144,0.013-3.214,0.022
			c-0.603,0-1.204,0-1.806,0c-1.921,0-3.843,0-5.765,0c-0.603,0-1.204,0-1.806,0c-0.66,0-1.319,0-1.98,0c-0.601,0-1.203,0-1.804,0
			c-0.66,0-1.32,0-1.98,0c-0.602,0-1.203,0-1.805,0c-1.922,0-3.844,0-5.765,0c-0.602,0-1.204,0-1.806,0c-1.922,0-3.843,0-5.766,0
			c-0.601,0-1.203,0-1.804,0c-1.923,0-3.844,0-5.766,0c-0.602,0-1.203,0-1.806,0c-1.92,0-3.842,0-5.764,0c-0.603,0-1.204,0-1.806,0
			c-1.921,0-3.844,0-5.765,0c-0.603,0-1.203,0-1.806,0c-1.921,0-3.843,0-5.765,0c-0.602,0-1.203,0-1.805,0c-0.66,0-1.321,0-1.979,0
			c-0.603,0-1.204-0.002-1.806-0.002c-0.655-0.082-1.311-0.164-1.965-0.246c-1.143-0.553-1.908-1.419-2.236-2.654
			c-0.04-0.658-0.078-1.32-0.117-1.979c0.074-0.602,0.073-1.202,0-1.801c0.117-0.663,0.235-1.323,0.354-1.984
			c0.132-0.077,0.19-0.197,0.186-0.347c0.426-0.413,0.852-0.825,1.277-1.238c0.268-0.11,0.536-0.223,0.804-0.333
			c0.565-0.049,1.131-0.101,1.696-0.149c0.604,0,1.205,0,1.809,0c0.658,0,1.318,0,1.978,0c0.603,0,1.205,0,1.808,0
			c0.659,0,1.317,0,1.977,0c0.604,0,1.206,0,1.809,0C421.031,385.86,421.691,385.86,422.35,385.86z M490.876,425.773
			c-0.233,1.07-0.661,2.017-1.787,2.396c-1.509,0.511-2.923,0.328-4.199-0.857c0,0.834,0,1.543,0,2.25
			c-0.076,0.66-0.076,1.322,0,1.983v1.801v1.984v1.8v1.984v1.803v1.981v1.803v1.983v1.8v1.985v1.802v1.983v1.801v1.983v1.804v1.98
			v1.803v1.984v1.801v1.983c-0.005,0.599-0.009,1.197-0.013,1.794c-0.119,0.48-0.239,0.963-0.357,1.445
			c-0.6,0.855-1.292,1.597-2.337,1.95h-7.731v-35.434h-0.498c-0.143-0.06-0.342-0.058-0.592,0h-16.764
			c-0.123-0.026-0.17,0.022-0.144,0.144c0.001,0.539,0.001,1.079,0.002,1.619c0,0.662,0,1.327,0,1.99c0,0.599,0,1.197,0,1.796
			c0,0.661,0,1.326,0,1.986c0,0.602,0,1.199,0,1.798c0,0.663,0,1.326,0,1.989c0,0.599,0,1.196,0,1.795c0,0.663,0,1.326,0,1.991
			c0,0.597,0,1.195,0,1.796c0,0.661,0,1.323,0,1.987c0,0.598,0,1.197,0,1.796c0,0.664,0,1.327,0,1.988c0,0.599,0,1.199,0,1.796
			c0,0.663,0,1.328,0,1.988c0,0.602,0,1.199,0,1.798c0,0.663,0,1.326,0,1.989c0,0.598,0,1.195,0,1.798c0,0.661,0,1.323,0,1.988
			c-0.003,0.419-0.003,0.838-0.006,1.255c-0.021,0.092,0.003,0.131,0.058,0.146h-47.297c-0.752-0.383-1.354-0.892-1.883-1.495
			l0.006-0.007c-0.352-0.583-0.483-1.244-0.645-1.894h-0.017v-43.738c-0.007-0.061-0.013-0.122-0.021-0.184
			c-0.431,0.561-0.911,0.839-1.425,1.072c-0.59,0.079-1.182,0.151-1.775,0.031c-1.458-0.288-2.235-1.277-2.675-2.61
			c-0.134-0.606,0.004-1.192,0.158-1.776c0.55-1.215,0.928-2.492,1.341-3.758c0.228-0.664,0.456-1.331,0.687-1.999
			c0.442-1.268,0.888-2.539,1.331-3.809c0.245-0.582,0.498-1.161,0.599-1.793c0.566-1.208,0.924-2.491,1.344-3.754
			c0.257-0.649,0.584-1.282,0.442-2.019c0.074-0.602,0.074-1.203,0-1.804c0.029-0.653,0.061-1.306,0.091-1.961
			c0.292-1.31,1.042-2.242,2.271-2.79c0.653-0.092,1.307-0.183,1.961-0.272c1.86,0.096,3.72,0.096,5.581,0
			c0.663,0.087,1.325,0.087,1.988,0c0.599,0.085,1.197,0.085,1.797,0c0.663,0.087,1.325,0.087,1.988,0
			c0.6,0.085,1.197,0.085,1.796,0c0.664,0.087,1.326,0.087,1.988,0c1.861,0.096,3.722,0.096,5.582,0
			c0.663,0.087,1.324,0.087,1.989,0c0.599,0.085,1.197,0.085,1.796,0c0.662,0.087,1.326,0.087,1.988,0
			c0.599,0.085,1.197,0.085,1.796,0c0.664,0.087,1.326,0.087,1.989,0c1.86,0.096,3.722,0.096,5.582,0
			c0.661,0.085,1.325,0.085,1.988,0c1.86,0.096,3.721,0.096,5.581,0c0.662,0.087,1.326,0.087,1.988,0
			c0.599,0.085,1.197,0.085,1.796,0c0.664,0.087,1.326,0.087,1.989,0c0.599,0.085,1.197,0.085,1.797,0
			c0.662,0.087,1.326,0.087,1.987,0c0.6,0.085,1.198,0.085,1.798,0c0.663,0.087,1.324,0.087,1.988,0
			c0.599,0.085,1.197,0.085,1.796,0c0.663,0.087,1.325,0.087,1.988,0c0.6,0.085,1.198,0.085,1.797,0
			c0.662,0.087,1.325,0.087,1.988,0c0.599,0.085,1.197,0.085,1.797,0c0.664,0.087,1.325,0.087,1.988,0
			c0.595,0.019,1.189,0.038,1.785,0.06c2.192,0.084,3.259,0.91,3.884,3.003c0.029,0.655,0.061,1.308,0.091,1.961
			c-0.074,0.601-0.074,1.202,0,1.804c-0.142,0.737,0.185,1.374,0.446,2.026c0.214,0.584,0.428,1.17,0.644,1.758
			c0.07,0.52,0.27,0.997,0.502,1.46c0.017,0.194,0.003,0.4,0.192,0.529c0.106,0.631,0.356,1.21,0.601,1.792
			c0.446,1.27,0.892,2.539,1.34,3.808c0.227,0.666,0.455,1.334,0.681,1.999c0.43,1.26,0.767,2.55,1.345,3.756
			C490.785,424.57,490.92,425.161,490.876,425.773z M424.178,425.78c-0.009,0.745,0.251,1.394,0.691,1.983
			c0.271,0.607,0.72,1.057,1.28,1.4c1.118,0.882,2.388,1.125,3.77,0.905c0.337,0.005,0.64-0.101,0.922-0.278
			c0.34-0.044,0.629-0.198,0.882-0.424c0.708-0.36,1.242-0.898,1.6-1.61c0.338-0.42,0.538-0.895,0.575-1.435
			c0.291-1.423,0.325-2.87,0.396-4.313c0.193-0.591,0.151-1.204,0.159-1.812c0.211-0.647,0.165-1.315,0.177-1.98
			c0.211-0.591,0.167-1.202,0.163-1.812c0.206-0.646,0.189-1.313,0.181-1.98c0.193-0.588,0.188-1.195,0.168-1.804
			c0.378-2.284,0.36-1.92-1.438-1.822c-0.657-0.092-1.314-0.089-1.973-0.004c-0.604-0.099-1.209-0.104-1.813,0.004
			c-0.658-0.092-1.315-0.089-1.974-0.004c-1.457-0.16-1.459-0.16-1.712,1.207c-0.038,0.205-0.046,0.414-0.067,0.621
			c-0.109,0.476-0.244,0.943-0.208,1.439c-0.388,1.356-0.546,2.752-0.713,4.146c-0.209,0.643-0.298,1.308-0.345,1.979
			c-0.107,0.605-0.216,1.207-0.324,1.811c-0.104,0.653-0.207,1.306-0.311,1.958C424.033,424.554,424.117,425.168,424.178,425.78z
			 M417.298,425.778c0.074-0.596,0.148-1.192,0.222-1.789c0.259-0.64,0.347-1.319,0.468-1.991c0.127-0.605,0.254-1.209,0.382-1.809
			c0.199-0.586,0.337-1.185,0.371-1.803c0.443-1.29,0.655-2.631,0.892-3.967c0.202-0.583,0.356-1.177,0.382-1.799
			c0.563-2.125,0.853-1.963-1.449-1.822c-0.659-0.092-1.315-0.089-1.973-0.004c-0.605-0.099-1.21-0.104-1.814,0.004
			c-0.659-0.092-1.316-0.089-1.973-0.004c-0.883-0.265-1.432-0.014-1.552,0.966c-0.035,0.292-0.143,0.577-0.217,0.863
			c-0.075,0.3-0.15,0.598-0.226,0.896c-0.222,0.263-0.235,0.595-0.313,0.907c-0.188,0.658-0.378,1.318-0.565,1.979
			c-0.26,0.576-0.423,1.183-0.539,1.806c-0.425,1.244-0.841,2.49-1.107,3.78c-0.299,0.622-0.46,1.286-0.599,1.957
			c-0.299,0.578-0.378,1.188-0.232,1.822c0.052,0.816,0.328,1.544,0.83,2.188c0.189,0.329,0.389,0.653,0.738,0.846
			c1.611,1.521,3.947,1.807,5.763,0.707c0.804-0.378,1.426-0.943,1.826-1.743c0.157-0.062,0.172-0.208,0.194-0.349
			C417.146,426.925,417.334,426.384,417.298,425.778z M445.604,439.148c-0.179,0.002-0.358,0.003-0.537,0.007
			c-0.663,0-1.326,0-1.99,0c-0.598,0-1.197,0-1.796,0c-0.663,0-1.325,0-1.989,0c-0.599,0-1.195,0-1.796,0c-0.662,0-1.326,0-1.989,0
			c-0.598,0-1.196,0-1.795,0c-0.663,0-1.326,0-1.989,0c-0.599,0-1.197,0-1.796,0c-0.663,0-1.326,0-1.99,0c-0.598,0-1.196,0-1.794,0
			c-0.664,0-1.326,0-1.99,0c-0.599,0-1.196,0-1.796,0c-0.663,0-1.325,0-1.988,0c-0.6,0-1.197,0-1.797,0
			c-1.198-0.069-1.2-0.069-1.185,1.083c0.003,0.233,0.041,0.462,0.063,0.692c-0.104,0.651-0.104,1.303,0,1.956
			c-0.104,0.609-0.104,1.22,0,1.829c-0.104,0.652-0.104,1.305,0,1.955c-0.104,0.611-0.104,1.22,0,1.831
			c-0.104,0.651-0.104,1.304,0,1.958c-0.104,0.607-0.104,1.216,0,1.825c-0.104,0.652-0.104,1.305,0,1.957
			c-0.104,0.611-0.104,1.219,0,1.829c-0.104,0.653-0.104,1.303,0,1.956c-0.104,0.608-0.104,1.218,0,1.828
			c-0.103,0.656-0.104,1.311,0,1.964c-0.021,0.419-0.012,0.842-0.073,1.253c-0.112,0.75,0.169,0.94,0.921,0.934
			c4.594-0.036,9.188-0.018,13.783-0.018c4.295,0,8.59,0.007,12.885-0.02c0.246-0.004,0.787,0.346,0.788-0.346
			c0-0.597,0-1.197,0-1.796c0-0.661,0-1.324,0-1.988c0-0.599,0-1.198,0-1.796c0-0.664,0-1.326,0-1.987c0-0.601,0-1.199,0-1.798
			c0-0.663,0-1.326,0-1.986c0-0.602,0-1.199,0-1.799c0-0.662,0-1.325,0-1.987c0-0.6,0-1.197,0-1.799c0-0.66,0-1.323,0-1.986
			c0-0.599,0-1.197,0-1.796c0-0.663,0-1.328,0-1.99c0-0.538,0-1.078,0.001-1.619C445.776,439.171,445.729,439.12,445.604,439.148z
			 M450.708,423.981c0.106-0.67-0.021-1.328-0.076-1.99c-0.014-0.6-0.03-1.198-0.045-1.796c0.043-0.666,0.012-1.329-0.114-1.986
			c-0.012-0.601-0.024-1.2-0.036-1.799c0.018-0.668,0.056-1.335-0.103-1.991c-0.021-0.599-0.042-1.197-0.063-1.796
			c0.003-0.38-0.02-0.763,0.015-1.143c0.05-0.563-0.147-0.832-0.739-0.74c-0.23,0.038-0.465,0.039-0.696,0.059
			c-0.663-0.092-1.327-0.089-1.988-0.002c-0.6-0.084-1.199-0.088-1.798,0.002c-0.662-0.092-1.324-0.089-1.988-0.002
			c-1.809-0.173-1.809-0.173-1.808,1.564c0,0.087,0.018,0.173,0.027,0.262c-0.019,0.597-0.037,1.192-0.056,1.789
			c-0.192,0.655-0.137,1.326-0.11,1.998c-0.01,0.599-0.021,1.198-0.031,1.799c-0.235,2.497-0.317,5-0.282,7.505
			c0.009,0.745,0.264,1.462,0.748,2.067c0.304,0.606,0.758,1.069,1.332,1.422c1.994,1.404,4.496,1.27,6.184-0.334
			c0.429-0.265,0.712-0.652,0.941-1.088c0.406-0.611,0.702-1.259,0.677-2.016C450.863,425.171,450.811,424.575,450.708,423.981z
			 M467.316,423.956c-0.105-0.654-0.211-1.305-0.318-1.958c-0.109-0.604-0.219-1.205-0.327-1.809
			c-0.044-0.673-0.133-1.338-0.345-1.979c-0.104-1.287-0.359-2.55-0.608-3.812c-0.104-0.591-0.21-1.185-0.313-1.776
			c-0.041-0.295-0.122-0.59-0.116-0.884c0.02-0.968-0.466-1.189-1.304-0.94c-0.658-0.092-1.316-0.089-1.974-0.004
			c-0.604-0.099-1.21-0.104-1.814,0.004c-0.656-0.092-1.313-0.089-1.971-0.004c-2.305-0.099-2.168-0.432-1.801,1.826
			c-0.018,0.608-0.025,1.216,0.168,1.804c-0.009,0.667-0.024,1.335,0.179,1.98c-0.002,0.609-0.046,1.221,0.165,1.812
			c0.011,0.665-0.034,1.333,0.177,1.98c0.005,0.599-0.027,1.202,0.149,1.785c0.03,0.671,0.001,1.347,0.184,2.003
			c0.042,1.305-0.035,2.636,0.8,3.771c0.44,0.831,1.077,1.448,1.958,1.8c1.207,0.694,2.469,0.773,3.776,0.335
			c0.15,0.021,0.276-0.021,0.367-0.149c1.813-0.707,2.816-2.039,3.045-3.964C467.518,425.166,467.496,424.555,467.316,423.956z
			 M483.901,423.945c-0.354-1.263-0.639-2.546-1.149-3.761c-0.093-0.687-0.315-1.336-0.575-1.974c-0.11-0.624-0.28-1.229-0.54-1.806
			c-0.071-0.577-0.258-1.117-0.485-1.644c-0.027-0.114-0.056-0.229-0.083-0.343c-0.179-0.599-0.356-1.196-0.536-1.795
			c-0.103-0.371-0.235-0.743-0.299-1.123c-0.11-0.669-0.441-0.938-1.111-0.702c-0.656-0.092-1.313-0.089-1.971-0.004
			c-0.604-0.099-1.21-0.104-1.814,0.004c-0.657-0.092-1.313-0.089-1.971-0.004c-2.903-0.14-2.29-0.285-1.87,1.76
			c0.006,0.025,0.036,0.045,0.055,0.068c0.03,0.619,0.181,1.214,0.384,1.797c0.139,0.672,0.278,1.341,0.417,2.009
			c0.142,0.597,0.283,1.196,0.425,1.794c0.173,1.279,0.485,2.527,0.802,3.775c0.122,0.672,0.21,1.352,0.469,1.991
			c0.051,0.6,0.103,1.2,0.154,1.799c0.248,2.522,2.33,4.348,4.926,4.322c2.592,0.02,4.743-1.884,4.889-4.325
			C484.271,425.154,484.184,424.542,483.901,423.945z"/>
	</g>
</g>
</svg>
